<svg xmlns:sketch="http://www.bohemiancoding.com/sketch/ns" xmlns="http://www.w3.org/2000/svg" width="121" height="26" viewBox="0 0 121 26"><title>create + Oval 5</title><g sketch:type="MSLayerGroup" fill="#fff"><path sketch:type="MSShapeGroup" d="M16.894 21.78s-2.789 2.591-6.933 2.591c-5.777 0-8.208-4.221-8.208-8.857 0-5.223 2.869-8.649 8.208-8.649 3.785 0 5.777 1.713 5.777 1.713l.757-1.504s-2.351-1.838-6.534-1.838c-6.574-.001-9.961 4.344-9.961 10.278 0 5.681 2.909 10.486 9.961 10.486 4.701 0 7.61-2.799 7.61-2.799l-.677-1.421zm6.24 3.58v-13.486c.877-1.461 3.31-4.927 6.619-4.927 1.555 0 2.392.459 2.392.459l.558-1.545s-.997-.626-2.751-.626c-3.708 0-6.14 3.633-6.818 4.802v-4.468l-1.794.543v19.248h1.794zm28.428-9.053s.318-.877.318-2.172c0-5.056-3.105-8.9-8.72-8.9-6.291 0-9.516 4.345-9.516 10.279 0 5.682 2.986 10.486 9.954 10.486 4.698 0 7.605-2.925 7.605-2.925l-.677-1.295s-2.787 2.591-6.928 2.591c-5.455 0-7.923-3.636-8.163-8.064h16.127zm-16.144-1.534c.239-4.812 2.909-7.91 7.731-7.91 4.304 0 7.013 2.512 7.013 7.241 0 .251 0 .502-.04.669h-14.704zm41.673 8.72s-1.554.669-2.589.669c-.796 0-1.035-.377-1.035-1.129v-15.166s-3.105-2.632-7.924-2.632c-6.491 0-10.115 4.22-10.115 10.236 0 5.725 2.708 10.529 9 10.529 3.584 0 6.092-1.88 7.287-3.008v.501c0 1.295.677 2.131 2.27 2.131 2.111 0 3.504-1.087 3.504-1.087l-.398-1.044zm-5.422-2.214c-.954.961-3.497 3.092-7.034 3.092-5.287 0-7.433-3.886-7.433-8.9 0-5.306 3.021-8.607 8.267-8.607 3.14 0 5.326 1.128 6.2 1.672v12.743zm18.809 1.841s-1.196 1.21-4.026 1.21c-2.233 0-3.589-1.418-3.589-4.215v-12.645h6.937v-1.627h-6.938v-5.843l-1.794.668v5.175h-2.95l-.518 1.627h3.469v12.52c0 4.215 2.193 6.01 5.303 6.01 3.27 0 4.863-1.544 4.863-1.544l-.757-1.336zm19.838-6.813s.318-.877.318-2.172c0-5.056-3.105-8.9-8.72-8.9-6.291 0-9.517 4.345-9.517 10.279 0 5.682 2.986 10.486 9.955 10.486 4.697 0 7.604-2.925 7.604-2.925l-.677-1.295s-2.787 2.591-6.928 2.591c-5.455 0-7.924-3.636-8.162-8.064h16.127zm-16.087-1.534c.238-4.812 2.908-7.91 7.73-7.91 4.303 0 7.014 2.512 7.014 7.241 0 .251 0 .502-.041.669h-14.703z"/><path sketch:type="MSShapeGroup" d="M121 22.365c0-2.008-1.551-3.636-3.465-3.636-1.912 0-3.464 1.628-3.464 3.636s1.552 3.635 3.464 3.635c1.914 0 3.465-1.627 3.465-3.635zm-5.432 0c0-1.141.881-2.065 1.967-2.065 1.088 0 1.969.925 1.969 2.065s-.881 2.064-1.969 2.064c-1.086.001-1.967-.924-1.967-2.064z"/></g></svg>